<?xml version="1.0" encoding="utf-8"?>
<!-- Generator: Adobe Illustrator 17.0.2, SVG Export Plug-In . SVG Version: 6.00 Build 0)  -->
<!DOCTYPE svg PUBLIC "-//W3C//DTD SVG 1.1//EN" "http://www.w3.org/Graphics/SVG/1.1/DTD/svg11.dtd">
<svg version="1.1" id="Background" xmlns="http://www.w3.org/2000/svg" xmlns:xlink="http://www.w3.org/1999/xlink" x="0px" y="0px"
	 width="252px" height="144px" viewBox="0 0 252 144" enable-background="new 0 0 252 144" xml:space="preserve">
<g id="Shape_2">
	<g>
		<path fill="#B1AFAF" d="M120.888,45.665l0.866-3.627c0,0-68.943,29.864-14.022,63.068S60.968,83.396,120.888,45.665z"/>
	</g>
</g>
<g id="Shape_1">
	<g>
		<path fill="#B1AFAF" d="M138.227,93.023c-0.311-0.25-0.628-0.496-0.949-0.738c-2.308,1.635-4.406,2.904-5.865,3.734
			c0,0.077,0,0.15,0,0.222c0.018-0.008,0.038-0.016,0.056-0.024C133.888,95.147,136.129,94.082,138.227,93.023z"/>
		<path fill="#B1AFAF" d="M131.413,96.241c0-0.073,0-0.145,0-0.222c-0.14,0.08-0.264,0.148-0.392,0.22
			c0.027,0.046,0.049,0.093,0.076,0.139C131.201,96.332,131.309,96.287,131.413,96.241z"/>
		<path fill="#B1AFAF" d="M131.021,96.239c-0.691,0.387-1.212,0.662-1.474,0.797c0.005,0.003,0.01,0.006,0.015,0.009
			c0.52-0.222,1.029-0.445,1.535-0.667C131.071,96.332,131.048,96.285,131.021,96.239z"/>
		<path fill="#B1AFAF" d="M130.095,36.955c0,0-3.256,9.535-0.139,11.031c36.741,17.641,19.252,35.848,7.322,44.299
			c0.321,0.242,0.637,0.488,0.949,0.738C198.413,62.634,130.095,36.955,130.095,36.955z"/>
	</g>
</g>
<rect x="8.921" y="10.138" fill="none" width="115.836" height="19.062"/>
</svg>
